<?xml version="1.0" encoding="UTF-8"?>
<svg id="Layer_1" data-name="Layer 1" xmlns="http://www.w3.org/2000/svg" version="1.1" viewBox="0 0 792 612">
  <defs>
    <style>
      .cls-1 {
        fill: #006fcf;
      }

      .cls-1, .cls-2, .cls-3, .cls-4 {
        stroke-width: 0px;
      }

      .cls-2 {
        fill: #2c6fb6;
      }

      .cls-3 {
        fill: #1e2256;
      }

      .cls-4 {
        fill: #fff;
      }
    </style>
  </defs>
  <g>
    <g>
      <path class="cls-1" d="M601.85,469.9c-1.74,0-3.49-.2-5.2-.61l-128.25-30.24c-12.24-2.89-19.86-15.2-16.97-27.44l59.86-253.86c2.4-10.18,11.75-17.58,22.24-17.58,1.74,0,3.49.2,5.2.61l128.25,30.24c5.9,1.39,10.92,5.02,14.14,10.22s4.22,11.31,2.83,17.22l-59.86,253.86c-2.4,10.18-11.75,17.58-22.24,17.58Z"/>
      <path class="cls-4" d="M533.53,144.18h0c1.43,0,2.87.17,4.28.5l128.25,30.24c4.86,1.15,9,4.14,11.66,8.43,2.65,4.29,3.48,9.33,2.34,14.2l-59.86,253.86c-1.98,8.4-9.7,14.49-18.34,14.49-1.43,0-2.88-.17-4.28-.5l-128.25-30.24c-4.86-1.15-9-4.14-11.66-8.43-2.65-4.29-3.48-9.33-2.34-14.2l59.86-253.86c1.98-8.4,9.7-14.49,18.35-14.49M533.53,136.18c-12.15,0-23.23,8.35-26.13,20.66l-59.86,253.86c-3.38,14.35,5.59,28.87,19.94,32.25l128.25,30.24c2.05.48,4.1.71,6.12.71,12.15,0,23.23-8.35,26.13-20.66l59.86-253.86c3.38-14.35-5.59-28.87-19.94-32.25l-128.25-30.24c-2.05-.48-4.1-.71-6.12-.71h0Z"/>
    </g>
    <g>
      <line class="cls-2" x1="629.03" y1="336.49" x2="610.75" y2="414"/>
      <path class="cls-4" d="M610.75,417.54c-.27,0-.54-.03-.82-.1-1.9-.45-3.08-2.35-2.63-4.26l18.28-77.51c.45-1.9,2.34-3.09,4.26-2.63,1.9.45,3.08,2.35,2.63,4.26l-18.28,77.51c-.38,1.63-1.84,2.73-3.44,2.73Z"/>
    </g>
    <g>
      <line class="cls-2" x1="607.51" y1="331.75" x2="589.23" y2="409.25"/>
      <path class="cls-4" d="M589.24,412.79c-.27,0-.54-.03-.82-.1-1.9-.45-3.08-2.35-2.63-4.26l18.28-77.51c.45-1.9,2.34-3.09,4.26-2.63,1.9.45,3.08,2.35,2.63,4.26l-18.28,77.51c-.38,1.63-1.84,2.73-3.44,2.73Z"/>
    </g>
    <g>
      <line class="cls-2" x1="585.56" y1="326.24" x2="567.28" y2="403.75"/>
      <path class="cls-4" d="M567.28,407.29c-.27,0-.54-.03-.82-.1-1.9-.45-3.08-2.35-2.63-4.26l18.28-77.51c.45-1.9,2.34-3.09,4.26-2.63,1.9.45,3.08,2.35,2.63,4.26l-18.28,77.51c-.38,1.63-1.84,2.73-3.44,2.73Z"/>
    </g>
    <g>
      <line class="cls-2" x1="565.42" y1="321.49" x2="547.14" y2="399"/>
      <path class="cls-4" d="M547.15,402.54c-.27,0-.54-.03-.82-.1-1.9-.45-3.08-2.35-2.63-4.26l18.28-77.51c.45-1.9,2.34-3.09,4.26-2.63,1.9.45,3.08,2.35,2.63,4.26l-18.28,77.51c-.38,1.63-1.84,2.73-3.44,2.73Z"/>
    </g>
    <g>
      <line class="cls-2" x1="542.41" y1="316.06" x2="524.13" y2="393.57"/>
      <path class="cls-4" d="M524.14,397.11c-.27,0-.54-.03-.82-.1-1.9-.45-3.08-2.35-2.63-4.26l18.28-77.51c.45-1.9,2.34-3.09,4.26-2.63,1.9.45,3.08,2.35,2.63,4.26l-18.28,77.51c-.38,1.63-1.84,2.73-3.44,2.73Z"/>
    </g>
    <g>
      <line class="cls-2" x1="522.27" y1="311.32" x2="504" y2="388.82"/>
      <path class="cls-4" d="M504,392.36c-.27,0-.54-.03-.82-.1-1.9-.45-3.08-2.35-2.63-4.26l18.28-77.51c.45-1.9,2.35-3.09,4.26-2.63,1.9.45,3.08,2.35,2.63,4.26l-18.28,77.51c-.38,1.63-1.84,2.73-3.44,2.73Z"/>
    </g>
    <g>
      <line class="cls-2" x1="500.54" y1="306.19" x2="482.26" y2="383.7"/>
      <path class="cls-4" d="M482.26,387.24c-.27,0-.54-.03-.82-.1-1.9-.45-3.08-2.35-2.63-4.26l18.28-77.51c.45-1.9,2.35-3.09,4.26-2.63,1.9.45,3.08,2.35,2.63,4.26l-18.28,77.51c-.38,1.63-1.84,2.73-3.44,2.73Z"/>
    </g>
    <g>
      <rect class="cls-2" x="513.32" y="262.34" width="4.47" height="4.54" transform="translate(74.49 -111.26) rotate(13.27)"/>
      <rect class="cls-4" x="509.74" y="258.84" width="11.62" height="11.55" transform="translate(139.7 705.69) rotate(-76.73)"/>
    </g>
    <g>
      <rect class="cls-2" x="533.31" y="267.06" width="4.47" height="4.54" transform="translate(76.11 -115.72) rotate(13.27)"/>
      <rect class="cls-4" x="529.73" y="263.56" width="11.62" height="11.55" transform="translate(150.51 728.78) rotate(-76.73)"/>
    </g>
    <g>
      <rect class="cls-2" x="553.19" y="271.74" width="4.47" height="4.54" transform="translate(77.71 -120.16) rotate(13.27)"/>
      <rect class="cls-4" x="549.62" y="268.24" width="11.62" height="11.55" transform="translate(161.24 751.72) rotate(-76.73)"/>
    </g>
    <g>
      <rect class="cls-2" x="573.19" y="276.46" width="4.47" height="4.54" transform="translate(79.33 -124.62) rotate(13.27)"/>
      <rect class="cls-4" x="569.61" y="272.96" width="11.62" height="11.55" transform="translate(172.12 774.86) rotate(-76.74)"/>
    </g>
    <g>
      <rect class="cls-2" x="594.26" y="281.43" width="4.47" height="4.54" transform="translate(81.03 -129.33) rotate(13.27)"/>
      <rect class="cls-4" x="590.68" y="277.93" width="11.62" height="11.54" transform="translate(183.43 799.13) rotate(-76.73)"/>
    </g>
    <g>
      <rect class="cls-2" x="612.91" y="285.82" width="4.47" height="4.54" transform="translate(82.54 -133.49) rotate(13.27)"/>
      <rect class="cls-4" x="609.33" y="282.32" width="11.62" height="11.54" transform="translate(193.51 820.66) rotate(-76.73)"/>
    </g>
    <g>
      <rect class="cls-2" x="632.79" y="290.51" width="4.47" height="4.54" transform="translate(84.15 -137.93) rotate(13.27)"/>
      <rect class="cls-4" x="629.21" y="287.01" width="11.62" height="11.55" transform="translate(204.33 843.67) rotate(-76.73)"/>
    </g>
    <g>
      <rect class="cls-2" x="651.43" y="294.91" width="4.47" height="4.54" transform="translate(85.65 -142.09) rotate(13.27)"/>
      <rect class="cls-4" x="647.86" y="291.41" width="11.62" height="11.55" transform="translate(214.44 865.23) rotate(-76.74)"/>
    </g>
    <g>
      <rect class="cls-2" x="491.52" y="257.17" width="4.47" height="4.54" transform="translate(72.72 -106.39) rotate(13.27)"/>
      <rect class="cls-4" x="487.94" y="253.67" width="11.62" height="11.54" transform="translate(127.89 680.45) rotate(-76.73)"/>
    </g>
  </g>
  <g>
    <path class="cls-1" d="M128.46,294.25h392.46c11.6,0,21.02,9.42,21.02,21.02v135.53c0,11.6-9.42,21.02-21.02,21.02H128.46c-11.6,0-21.02-9.42-21.02-21.02v-135.53c0-11.6,9.42-21.02,21.02-21.02Z"/>
    <path class="cls-4" d="M520.93,298.25c9.38,0,17.02,7.64,17.02,17.02v135.53c0,9.38-7.64,17.02-17.02,17.02H128.46c-9.38,0-17.02-7.64-17.02-17.02v-135.53c0-9.38,7.64-17.02,17.02-17.02h392.47M520.93,290.25H128.46c-13.76,0-25.02,11.26-25.02,25.02v135.53c0,13.76,11.26,25.02,25.02,25.02h392.47c13.76,0,25.02-11.26,25.02-25.02v-135.53c0-13.76-11.26-25.02-25.02-25.02h0Z"/>
  </g>
  <g>
    <path class="cls-4" d="M138.95,414.01c0-9.31,2.26-18.36,19.23-29.24,10.01-6.35,13.92-8.79,13.92-15.32,0-4.79-3.05-7.83-8.44-7.83-5.05,0-10.36,3.31-14.1,9.23l-10.01-7.05c5.57-8.53,13.14-14.01,24.54-14.01,13.84,0,21.76,7.31,21.76,18.71,0,7.14-1.91,13.49-14.27,21.32-9.31,5.92-15.49,10.7-15.84,14.53h30.55v11.05h-47.34v-1.39Z"/>
    <path class="cls-4" d="M192.74,383.2c0-20.1,9.92-33.42,26.8-33.42s26.72,13.31,26.72,33.42-9.75,33.42-26.72,33.42-26.8-13.32-26.8-33.42ZM232.25,383.2c0-14.71-4.61-22.1-12.71-22.1s-12.71,7.4-12.71,22.1,4.61,22.37,12.71,22.37,12.71-7.66,12.71-22.37Z"/>
    <path class="cls-4" d="M251.23,414.01c0-9.31,2.26-18.36,19.23-29.24,10.01-6.35,13.92-8.79,13.92-15.32,0-4.79-3.05-7.83-8.44-7.83-5.05,0-10.36,3.31-14.1,9.23l-10.01-7.05c5.57-8.53,13.14-14.01,24.54-14.01,13.84,0,21.76,7.31,21.76,18.71,0,7.14-1.91,13.49-14.27,21.32-9.31,5.92-15.49,10.7-15.84,14.53h30.55v11.05h-47.34v-1.39Z"/>
    <path class="cls-4" d="M333.82,402.78h-31.24v-10.27l29.33-41.51h15.58v40.64h10.88v11.14h-10.88v12.62h-13.66v-12.62ZM333.82,391.64v-23.76h-.17l-16.45,23.76h16.62Z"/>
  </g>
  <g>
    <path class="cls-3" d="M114.05,172.3h8.24v30.72h16.47v6.67h-24.71v-37.39Z"/>
    <path class="cls-3" d="M153.92,172.15h7.83l13.24,37.54h-8.34l-2.78-8.34h-12.73l-2.88,8.34h-7.58l13.24-37.54ZM161.95,195.39l-4.29-12.73h-.1l-4.4,12.73h8.79Z"/>
    <path class="cls-3" d="M175.9,190.95c0-12.99,7.53-19.35,16.98-19.35s13.54,5.05,15.16,11.77l-7.78,2.27c-1.21-4.29-3.03-7.23-7.43-7.23-5.66,0-8.69,4.8-8.69,12.53s3.13,12.83,8.79,12.83c4.4,0,6.57-2.78,7.88-7.88l7.73,1.72c-1.82,7.53-6.27,12.78-15.66,12.78s-16.98-6.27-16.98-19.45Z"/>
    <path class="cls-3" d="M228.1,172.3h14.96c6.87,0,13.34,1.67,13.34,9.25,0,5.31-3.33,7.83-7.12,8.59v.1c4.55.81,8.14,3.18,8.14,9.15,0,7.53-6.62,10.31-13.59,10.31h-15.71v-37.39ZM242.25,187.71c4.29,0,6.27-1.62,6.27-4.5s-1.77-4.55-6.16-4.55h-6.16v9.04h6.06ZM242.81,203.43c4.55,0,6.57-1.82,6.57-5s-2.37-4.9-6.92-4.9h-6.27v9.9h6.62Z"/>
    <path class="cls-3" d="M263.02,195.39v-23.09h8.24v22.89c0,5.41,2.07,8.44,6.97,8.44s6.87-2.98,6.87-8.44v-22.89h8.08v23.04c0,9.2-4.65,14.96-15.06,14.96s-15.11-5.76-15.11-14.91Z"/>
    <path class="cls-3" d="M297.64,201.2l6.21-3.69c2.07,4.09,5.81,6.37,10.11,6.37,3.79,0,6.52-1.41,6.52-4.29s-2.68-4.04-7.58-5.41c-6.67-1.87-13.64-3.59-13.64-11.42,0-6.97,5.46-11.17,13.49-11.17s12.23,3.69,14.86,7.68l-5.71,4.35c-1.97-3.18-5.56-5.31-9.2-5.31s-5.41,1.52-5.41,3.74c0,2.98,2.78,4.04,7.68,5.41,6.57,1.77,13.54,3.84,13.54,11.57,0,6.01-4.55,11.37-14.96,11.37-8.08,0-13.14-3.84-15.92-9.2Z"/>
    <path class="cls-3" d="M335.03,172.3h8.19v37.39h-8.19v-37.39Z"/>
    <path class="cls-3" d="M351.3,172.3h8.24l15.66,23.85h.1v-23.85h7.58v37.39h-7.58l-16.32-24.05h-.1v24.05h-7.58v-37.39Z"/>
    <path class="cls-3" d="M390.57,172.3h25.47v6.87h-17.23v8.03h12.48v6.52h-12.48v9.3h18.14v6.67h-26.38v-37.39Z"/>
    <path class="cls-3" d="M419.93,201.2l6.22-3.69c2.07,4.09,5.81,6.37,10.11,6.37,3.79,0,6.52-1.41,6.52-4.29s-2.68-4.04-7.58-5.41c-6.67-1.87-13.64-3.59-13.64-11.42,0-6.97,5.46-11.17,13.49-11.17s12.23,3.69,14.86,7.68l-5.71,4.35c-1.97-3.18-5.56-5.31-9.2-5.31s-5.41,1.52-5.41,3.74c0,2.98,2.78,4.04,7.68,5.41,6.57,1.77,13.54,3.84,13.54,11.57,0,6.01-4.55,11.37-14.96,11.37-8.09,0-13.14-3.84-15.92-9.2Z"/>
    <path class="cls-3" d="M454.39,201.2l6.22-3.69c2.07,4.09,5.81,6.37,10.11,6.37,3.79,0,6.52-1.41,6.52-4.29s-2.68-4.04-7.58-5.41c-6.67-1.87-13.64-3.59-13.64-11.42,0-6.97,5.46-11.17,13.49-11.17s12.23,3.69,14.86,7.68l-5.71,4.35c-1.97-3.18-5.56-5.31-9.2-5.31s-5.41,1.52-5.41,3.74c0,2.98,2.78,4.04,7.68,5.41,6.57,1.77,13.54,3.84,13.54,11.57,0,6.01-4.55,11.37-14.96,11.37-8.09,0-13.14-3.84-15.92-9.2Z"/>
    <path class="cls-3" d="M121.08,236.47h-9.88v-6.11h27.13v6.11h-9.93v27.13h-7.32v-27.13Z"/>
    <path class="cls-3" d="M142.73,230.36h12.49c8.18,0,13.07,2.92,13.07,10.29,0,5.26-2.47,8.13-6.92,9.48l7.41,13.47h-7.73l-6.92-12.53h-4.22v12.53h-7.19v-33.24ZM154.9,245.41c4.22,0,6.24-1.21,6.24-4.58s-2.02-4.49-6.24-4.49h-4.99v9.07h4.99Z"/>
    <path class="cls-3" d="M183.06,230.22h6.96l11.77,33.37h-7.41l-2.47-7.41h-11.32l-2.56,7.41h-6.74l11.77-33.37ZM190.21,250.89l-3.82-11.32h-.09l-3.91,11.32h7.82Z"/>
    <path class="cls-3" d="M200.63,230.36h7.41l7.59,23.76h.09l7.86-23.76h6.87l-11.45,33.37h-6.92l-11.45-33.37Z"/>
    <path class="cls-3" d="M234.63,230.36h22.64v6.11h-15.32v7.14h11.09v5.79h-11.09v8.26h16.13v5.93h-23.45v-33.24Z"/>
    <path class="cls-3" d="M263.07,230.36h7.32v27.31h14.64v5.93h-21.96v-33.24Z"/>
    <path class="cls-3" d="M297.88,256.05l5.52-3.28c1.84,3.64,5.17,5.66,8.98,5.66,3.37,0,5.79-1.26,5.79-3.82s-2.38-3.59-6.74-4.81c-5.93-1.66-12.13-3.19-12.13-10.15,0-6.2,4.85-9.93,11.99-9.93s10.87,3.28,13.21,6.83l-5.08,3.86c-1.75-2.83-4.94-4.72-8.18-4.72s-4.81,1.35-4.81,3.32c0,2.65,2.47,3.59,6.83,4.81,5.84,1.57,12.04,3.41,12.04,10.29,0,5.34-4.04,10.11-13.3,10.11-7.19,0-11.68-3.41-14.15-8.17Z"/>
    <path class="cls-3" d="M329.68,250.89v-20.53h7.32v20.35c0,4.81,1.84,7.5,6.2,7.5s6.11-2.65,6.11-7.5v-20.35h7.19v20.48c0,8.18-4.13,13.3-13.38,13.3s-13.43-5.12-13.43-13.25Z"/>
    <path class="cls-3" d="M362.79,230.36h9.66l7.41,24.43h.09l6.92-24.43h9.88v33.24h-7.05v-22.68h-.09c-.49,2.87-1.12,4.99-1.84,7.41l-4.99,15.27h-6.47l-4.94-15.27c-.76-2.51-1.21-3.95-1.93-7.77h-.09v23.04h-6.56v-33.24Z"/>
    <path class="cls-3" d="M403.57,230.36h9.66l7.41,24.43h.09l6.92-24.43h9.88v33.24h-7.05v-22.68h-.09c-.49,2.87-1.12,4.99-1.84,7.41l-4.99,15.27h-6.47l-4.94-15.27c-.76-2.51-1.21-3.95-1.93-7.77h-.09v23.04h-6.56v-33.24Z"/>
    <path class="cls-3" d="M444.72,230.36h7.28v33.24h-7.28v-33.24Z"/>
    <path class="cls-3" d="M466.64,236.47h-9.88v-6.11h27.13v6.11h-9.93v27.13h-7.32v-27.13Z"/>
  </g>
  <g>
    <path class="cls-4" d="M609.36,256.31c-.38-.09-.78-.23-1.19-.43l-.13-.07c-.51-.33-1.59-1.5-.69-5.32l5.76-24.42-13.6-3.21-4.72,2.74c-1.62,1.09-3.81,2.3-5.1,2-.26-.06-1.05-.25-1.56-1.08-.66-1.09-.8-3.07.71-9.21,1.88-7.63,3.61-15.33,3.63-15.41l2.37.53c-.02.08-1.75,7.8-3.64,15.46-1.42,5.76-1.14,7.06-1.02,7.32,0,0,0,0,.01,0,.48-.04,2.02-.82,3.28-1.66l.07-.04,5.59-3.25,16.91,3.99-6.32,26.78c-.4,1.71-.29,2.5-.2,2.78,1.35.53,2.02-.17,2.15-.33l.05-.06,22.15-24.98,19.93,4.58c1.85.42,3.7-.74,4.12-2.59.2-.89.05-1.81-.45-2.59-.49-.78-1.27-1.31-2.14-1.53l-7.6-1.74-12.38-2.98-8.69-32.42c-.02-.12-.24-.89-1.74-.96-.15.12-.66.64-1.07,2.39l-6.32,26.78-16.91-3.99-3.55-5.4,2.03-1.34,3.02,4.6,13.6,3.21,5.76-24.42c.96-4.07,2.82-4.29,3.36-4.26,2.96.04,4.04,1.93,4.22,3.01l8.26,30.78,10.96,2.64,7.58,1.73c1.5.34,2.82,1.27,3.66,2.6.84,1.33,1.1,2.9.76,4.43-.72,3.16-3.88,5.14-7.03,4.42l-18.52-4.26-21.16,23.87c-.6.76-2.1,1.79-4.19,1.3ZM624.79,188.22s-.03,0-.05,0c.02,0,.04,0,.05,0Z"/>
    <path class="cls-4" d="M617.9,186.51l-15.35-3.62c-.65-.15-1.06-.81-.9-1.46.15-.65.81-1.06,1.46-.9l15.35,3.62c.65.15,1.06.81.9,1.46-.15.65-.81,1.06-1.46.9Z"/>
    <path class="cls-4" d="M616.5,192.42l-10.62-2.5c-.65-.15-1.06-.81-.9-1.46s.81-1.06,1.46-.9l10.62,2.5c.65.15,1.06.81.9,1.46s-.81,1.06-1.46.9Z"/>
    <path class="cls-4" d="M601.84,254.58l-15.35-3.62c-.65-.15-1.06-.81-.9-1.46.15-.65.81-1.06,1.46-.9l15.35,3.62c.65.15,1.06.81.9,1.46s-.81,1.06-1.46.9Z"/>
    <path class="cls-4" d="M603.24,248.66l-10.62-2.5c-.65-.15-1.06-.81-.9-1.46s.81-1.06,1.46-.9l10.62,2.5c.65.15,1.06.81.9,1.46s-.81,1.06-1.46.9Z"/>
  </g>
  <g>
    <path class="cls-4" d="M459.05,445.21c-32.92,0-59.71-26.79-59.71-59.71,0-22.83,12.71-43.33,33.17-53.5,1.02-.5,2.25-.09,2.75.93.51,1.02.09,2.25-.92,2.75-19.05,9.47-30.89,28.56-30.89,49.82,0,30.66,24.94,55.6,55.6,55.6s55.6-24.94,55.6-55.6-24.94-55.6-55.6-55.6c-5.82,0-11.54.89-17.02,2.65-1.08.35-2.24-.25-2.58-1.33-.35-1.08.25-2.24,1.33-2.58,5.89-1.89,12.04-2.85,18.28-2.85,32.93,0,59.71,26.79,59.71,59.71s-26.79,59.71-59.71,59.71Z"/>
    <path class="cls-4" d="M458.87,445.29l-2.14-3.51c15.04-9.19,24.76-31.21,24.76-56.1s-9.48-46.3-24.14-55.71l2.22-3.46c15.81,10.15,26.03,33.38,26.03,59.17s-10.49,49.68-26.73,59.6Z"/>
    <path class="cls-4" d="M457.86,444.94c-14.96-10.58-24.63-33.66-24.63-58.79s10.13-49.36,25.8-59.59l2.24,3.44c-14.54,9.49-23.93,31.52-23.93,56.14s8.99,45.6,22.89,55.44l-2.37,3.35Z"/>
    <rect class="cls-4" x="402.19" y="383.04" width="113.65" height="4.11"/>
  </g>
</svg>